<?xml version="1.0" encoding="UTF-8"?>
<svg width="700pt" height="700pt" version="1.1" viewBox="0 0 700 700" xmlns="http://www.w3.org/2000/svg">
 <path d="m346.71 388.29c-69.23 123.55-286.79 127.61-326.13-18.617-24.148-69.16 63.422-163.66 113.05-83.371 21.84 44.73-51.66 64.891-31.359 20.09 1.3281-3.5-0.14062-7.4219-3.3594-9.1719-28.07-15.121-41.93 59.988 10.641 60.621 64.051-7.5586 68.18-108.85 135.03-129.01 35.422-17.711 76.648-6.0195 104.51 15.75 79.73-65.801 159.88 12.039 194.95 85.82 9.3086 15.398 24.641 27.512 44.031 26.879 34.441 4.4805 55.789-58.59 16.449-62.859-3.7812 0.48828-5.8789 4.6211-3.9883 7.9102 18.898 33.602-26.039 37.871-35.352 11.762-10.359-99.191 130.27-59.641 117.46 32.27-10.988 150.29-231.49 175.35-312.97 67.059-8.3359-6.2266-14.355-25.406-22.965-25.129m-123.48-84.418c18.34-25.27 55.23-52.43 88.059-44.871-56.699-36.191-101.08 39.27-129.15 83.23-14.98 20.648-35.281 37.52-58.52 46.762-5.3203 2.1016-5.1797 2.8008 0.48828 2.1016 47.18-4.5547 72.242-52.152 99.121-87.223m359.24 84.98c-48.367-4.5508-80.43-70.211-102.34-101.15-23.379-30.172-60.059-47.809-97.301-30.449-5.8086 2.6602-5.6016 3.5703 0.76953 2.5898 96.531-19.602 112.14 139.09 198.87 129.01m-289.8-99.961c7.0703-6.2305 21.422-1.6797 23.871-6.3711-31.988-18.762-73.359 25.129-86.871 53.898 0.070313 1.3281 1.0508 3.5 2.5195 1.9609 17.078-21.348 37.238-37.867 60.48-49.488m89.879-4.6914c40.531-0.35156 60.41 31.852 87.641 53.762-10.289-30.52-48.648-64.328-84.699-58.309-4.1328-0.42188-9.8008 7.5586-2.9414 4.5469m-167.86 160.02c-102.2 28.488 34.371 18.34 72.52-44.59-16.59 11.41-47.461 34.512-72.52 44.59m197.61-40.949c24.641 30.102 67.551 58.52 106.12 52.922-36.473-9.6602-82.953-32.551-106.12-52.922z"/>
</svg>
